<?xml version="1.0" encoding="utf-8"?>
<!-- Generator: Adobe Illustrator 22.0.1, SVG Export Plug-In . SVG Version: 6.00 Build 0)  -->
<svg version="1.1" id="Layer_1" xmlns="http://www.w3.org/2000/svg" xmlns:xlink="http://www.w3.org/1999/xlink" x="0px" y="0px"
	 viewBox="0 0 512 512" style="enable-background:new 0 0 512 512;" xml:space="preserve">
<style type="text/css">
	.st0{fill:#464646;}
</style>
<g>
	<g>
		<path class="st0" d="M511.4,439.6c-0.5-19.5-8.6-38-22.7-52.1l-77.8-72.8l76-253.9l-49.2-49.2c-5.2-5.2-12.1-8.1-19.5-8.1
			c-7.4,0-14.3,2.9-19.5,8.1l-1.6,1.6l-1.1,2L292.1,203.9l-72.7-67c-4.8-4.7-9.9-8.9-15.3-12.6l21.8-84.2L193,7.2
			C188.3,2.6,182.2,0,175.6,0c-6.6,0-12.8,2.6-17.5,7.2L156.3,9l-47.7,94.1l-5,5L9.6,155.8l-1.8,1.8c-9.6,9.6-9.6,25.3,0,34.9
			l32.9,32.9l82.5-21.4c3.7,5.7,8.1,11.1,13.1,16.1l66.7,72.3L13.8,396.5l-1.6,1.6c-5.2,5.2-8.1,12.1-8.1,19.5
			c0,7.4,2.9,14.3,8.1,19.5l49.2,49.2l252.2-75.5l73.3,78.4c14.7,14.7,33.9,22.7,54.1,22.7c19,0,36.7-7.3,49.9-20.4
			C504.7,477.9,512,459.4,511.4,439.6z M480.1,440.5c0.3,11.1-3.7,21.4-11.2,29c-7.3,7.3-17.1,11.2-27.8,11.2
			c-11.8,0-23.1-4.7-31.8-13.4l-86-92L70.4,451l-32.2-32.2l214.9-118.3l-94.4-102.4c-5.7-5.7-10.3-12.2-13.6-19.1l-5.6-11.6
			l-89.3,23.1l-13.5-13.5l85.5-43.4l12-12l43.4-85.5l13.5,13.5l-23.5,90.7l11.4,5.6c6.7,3.3,12.9,7.8,18.5,13.4l0.5,0.4L300.3,254
			L419.4,37.6l32.2,32.2l-76.2,254.6l91.6,85.6C475,418.1,479.8,429,480.1,440.5z"/>
	</g>
</g>
</svg>
