<svg xmlns="http://www.w3.org/2000/svg" viewBox="0 0 225.46 348.32"><defs><style>.cls-1{fill:#464646;}</style></defs><title>ic_airplane_seat</title><g id="Layer_2" data-name="Layer 2"><g id="Layer_1-2" data-name="Layer 1"><path class="cls-1" d="M204.8,163.89c3.14,0,5.6,0,8.07,0,8.24.12,12.31,4,12.51,12.17.16,6.49,0,13,0,19.49q0,33.49,0,67c0,16.22-8,24.21-24.32,24.21q-88.22,0-176.45,0C7.8,286.75,0,278.86,0,261.85q0-41.49,0-83c0-12,3-14.93,15.14-15,1.63,0,3.25-.14,5.47-.24v-6.11q0-61.48,0-123C20.62,12.32,33,0,55.28,0Q113,0,170.74,0c21.56,0,34,12.54,34.05,34.16q0,61.48,0,123Zm-20.32-.56V158q0-61.24,0-122.47c0-12.08-3-15.16-15-15.16H56c-12,0-15.07,3.07-15.07,15.09q0,61.24,0,122.47c0,1.82,0,3.63,0,5.3,8.79,3.39,10.37,5.73,10.38,15.09,0,6.67,0,13.33,0,20,0,5.43,0,10.86,0,16.35H174.09c0-12.48,0-24.62,0-36.77C174.12,169,175.9,166.48,184.48,163.34Zm10.81,21a5.84,5.84,0,0,0-.53,1.37c0,12.32,0,24.65-.12,37-.06,8.62-3.93,12.7-12.45,12.71q-69.46.09-138.91,0c-8.53,0-12.46-4.09-12.51-12.64-.07-11,0-22,0-33,0-1.75,0-3.5,0-5.31H21v81.34H204.35V184.36Z"/><path class="cls-1" d="M31.43,297.19H51.89l-6.47,30.05H180l-6.57-30H194c3.38,12.38,6.74,24.54,10,36.73,2.08,7.8-2.63,14-10.77,14.07-13.33.1-26.66,0-40,0-39.5,0-79-.3-118.49.21-10,.13-16.31-6.87-12.65-17.27C25.9,320.12,28.32,308.68,31.43,297.19Z"/></g></g></svg>