<?xml version="1.0" encoding="UTF-8"?>
<svg width="16px" height="16px" viewBox="0 0 16 16" version="1.1" xmlns="http://www.w3.org/2000/svg" xmlns:xlink="http://www.w3.org/1999/xlink">
    <!-- Generator: Sketch 46.2 (44496) - http://www.bohemiancoding.com/sketch -->
    <title>baby-transport-side-view</title>
    <desc>Created with Sketch.</desc>
    <defs></defs>
    <g id="Symbols" stroke="none" stroke-width="1" fill="none" fill-rule="evenodd">
        <g id="Form" transform="translate(-838.000000, -33.000000)" fill-rule="nonzero" fill="#525458">
            <g id="Group-5">
                <g id="Group-4" transform="translate(838.000000, 30.000000)">
                    <g id="baby-transport-side-view" transform="translate(0.000000, 3.000000)">
                        <path d="M15.8579241,6.84956962 L2.67422785,6.84956962 C2.54592405,5.97605063 2.06972152,3.92258228 0.428,3.92258228 C0.201721519,3.92258228 0.0178734177,4.10602532 0.0178734177,4.33275949 C0.0178734177,4.55944304 0.201721519,4.74288608 0.428,4.74288608 C0.53721519,4.74288608 0.635594937,4.76759494 0.72956962,4.80232911 C1.28389873,5.00683544 1.5843038,5.75073418 1.74050633,6.37524051 C1.85994937,6.85240506 1.89681013,7.25346835 1.89939241,7.28268354 C1.90592405,9.29620253 2.76967089,11.1107848 4.1438481,12.3817722 C3.87802532,12.754481 3.7196962,13.2087089 3.7196962,13.7002532 C3.7196962,14.9557468 4.74101266,15.9770633 5.99650633,15.9770633 C7.07762025,15.9770633 7.98344304,15.2189873 8.21443038,14.207038 C8.43296203,14.2278481 8.65407595,14.2390886 8.87807595,14.2390886 C9.10207595,14.2390886 9.32318987,14.2273924 9.54182278,14.207038 C9.77331646,15.2189873 10.6787342,15.9770633 11.7598987,15.9770633 C13.0150886,15.9770633 14.0364051,14.9557468 14.0364051,13.7002532 C14.0364051,13.208962 13.8783797,12.754481 13.6124051,12.3823291 C14.9917975,11.1065316 15.8579747,9.28283544 15.8579747,7.26 L15.8579747,6.84956962 L15.8579241,6.84956962 Z M13.0228354,11.8071392 C12.6610127,11.5652658 12.2268861,11.4237468 11.7601519,11.4237468 C10.6114937,11.4237468 9.66177215,12.2792405 9.5076962,13.3859747 C9.30075949,13.4070886 9.09093671,13.4187848 8.87832911,13.4187848 C8.66582278,13.4187848 8.45620253,13.4070886 8.24926582,13.3859747 C8.09518987,12.2792405 7.14541772,11.4237468 5.99675949,11.4237468 C5.52977215,11.4237468 5.09559494,11.5652658 4.73382278,11.8071392 C3.59260759,10.7663291 2.84070886,9.30526582 2.73270886,7.66982278 L15.0238481,7.66982278 C14.9159494,9.30582278 14.1640506,10.7663797 13.0228354,11.8071392 Z M13.2164051,13.7002532 C13.2164051,14.5033924 12.563038,15.1568101 11.7601013,15.1568101 C11.0888608,15.1568101 10.5281519,14.6980759 10.3599494,14.079443 C10.3268354,13.9579747 10.3035949,13.8324557 10.3035949,13.7003038 C10.3035949,13.6907342 10.3062785,13.6816203 10.3067848,13.6717468 C10.3094684,13.5145316 10.340962,13.3654684 10.3901266,13.2239494 C10.5888101,12.6552405 11.1246582,12.244 11.7601519,12.244 C11.9595949,12.244 12.1494684,12.2846076 12.3227342,12.3572152 C12.4631899,12.4165063 12.5887089,12.5016709 12.7024304,12.5996456 C12.8068354,12.6888608 12.9011139,12.7892152 12.9763544,12.9040506 C13.1272405,13.1331139 13.2164051,13.4060253 13.2164051,13.7002532 Z M7.45331646,13.7002532 C7.45331646,13.8324051 7.43007595,13.9579241 7.39696203,14.0793924 C7.22875949,14.6980759 6.66805063,15.1567595 5.99675949,15.1567595 C5.19346835,15.1567595 4.54020253,14.5033924 4.54020253,13.7002025 C4.54020253,13.4059241 4.62936709,13.1330633 4.7796962,12.9039494 C4.8555443,12.7891139 4.94951899,12.6887595 5.05377215,12.5995443 C5.16779747,12.501519 5.29326582,12.4164051 5.43372152,12.3571139 C5.60713924,12.2844557 5.79711392,12.2438987 5.9964557,12.2438987 C6.63194937,12.2438987 7.16810127,12.6556456 7.36663291,13.2243544 C7.41579747,13.3653165 7.44729114,13.5145823 7.45017722,13.6715949 C7.45048101,13.6815696 7.45331646,13.6906835 7.45331646,13.7002532 Z" id="Shape"></path>
                        <path d="M15.8579241,5.61868354 C15.8579241,2.5203038 13.3373671,0 10.239038,0 L9.82886076,0 L9.82886076,6.02881013 L15.8579241,6.02881013 L15.8579241,5.61868354 Z M10.6491139,5.20855696 L10.6491139,0.837721519 C12.9686582,1.03478481 14.8232405,2.88916456 15.0200506,5.20855696 L10.6491139,5.20855696 Z" id="Shape"></path>
                    </g>
                </g>
            </g>
        </g>
    </g>
</svg>