<svg xmlns="http://www.w3.org/2000/svg" viewBox="0 0 7.8 4.55"><defs><style>.cls-1{isolation:isolate;}.cls-2{fill:#fff;}</style></defs><title>ic_carret_down_white</title><g id="Layer_2" data-name="Layer 2"><g id="Layer_1-2" data-name="Layer 1"><g class="cls-1"><g class="cls-1"><path class="cls-2" d="M7.8.65a.25.25,0,0,1-.08.18L4.08,4.47a.24.24,0,0,1-.36,0L.08.83A.25.25,0,0,1,0,.65.25.25,0,0,1,.08.47L.47.08A.25.25,0,0,1,.65,0,.25.25,0,0,1,.83.08L3.9,3.15,7,.08a.24.24,0,0,1,.36,0l.39.39A.25.25,0,0,1,7.8.65Z"/></g></g></g></g></svg>