<?xml version="1.0" encoding="utf-8"?>
<!-- Generator: Adobe Illustrator 22.0.0, SVG Export Plug-In . SVG Version: 6.00 Build 0)  -->
<svg version="1.1" id="Layer_1" xmlns="http://www.w3.org/2000/svg" xmlns:xlink="http://www.w3.org/1999/xlink" x="0px" y="0px"
	 viewBox="0 0 12 14" style="enable-background:new 0 0 12 14;" xml:space="preserve">
<style type="text/css">
	.st0{enable-background:new    ;}
	.st1{fill:#222222;}
</style>
<g class="st0">
	<path class="st1" d="M10.6,10.3c0,0.2-0.1,0.4-0.2,0.5l-1.1,1.1c-0.1,0.1-0.3,0.2-0.5,0.2c-0.2,0-0.4-0.1-0.5-0.2L6,9.6l-2.3,2.3
		c-0.1,0.1-0.3,0.2-0.5,0.2c-0.2,0-0.4-0.1-0.5-0.2l-1.1-1.1c-0.1-0.1-0.2-0.3-0.2-0.5s0.1-0.4,0.2-0.5l2.3-2.3L1.6,5.2
		C1.4,5.1,1.4,4.9,1.4,4.7s0.1-0.4,0.2-0.5l1.1-1.1C2.8,2.9,3,2.9,3.2,2.9c0.2,0,0.4,0.1,0.5,0.2L6,5.4l2.3-2.3
		c0.1-0.1,0.3-0.2,0.5-0.2c0.2,0,0.4,0.1,0.5,0.2l1.1,1.1c0.1,0.1,0.2,0.3,0.2,0.5s-0.1,0.4-0.2,0.5L8.1,7.5l2.3,2.3
		C10.6,9.9,10.6,10.1,10.6,10.3z"/>
</g>
</svg>
