<?xml version="1.0" encoding="UTF-8"?>
<svg width="49px" height="51px" viewBox="0 0 49 51" version="1.1" xmlns="http://www.w3.org/2000/svg" xmlns:xlink="http://www.w3.org/1999/xlink">
    <!-- Generator: Sketch 46.2 (44496) - http://www.bohemiancoding.com/sketch -->
    <title>cash-money</title>
    <desc>Created with Sketch.</desc>
    <defs></defs>
    <g id="Symbols" stroke="none" stroke-width="1" fill="none" fill-rule="evenodd" opacity="0.35">
        <g id="Form-thanh-toán-2" transform="translate(-181.000000, -195.000000)" fill-rule="nonzero" fill="#FFFFFF">
            <g id="Group-Copy-2" transform="translate(0.000000, 164.000000)">
                <g id="bg">
                    <g id="cash-money" transform="translate(181.000000, 31.000000)">
                        <path d="M59.2468619,0.0291213389 L7.0292887,0.0291213389 C6.47497908,0.0291213389 6.0251046,0.478995816 6.0251046,1.03330544 L6.0251046,27.1420921 L6.0251046,31.1588285 L6.0251046,35.1755649 C6.0251046,35.7298745 6.47497908,36.179749 7.0292887,36.179749 L59.2468619,36.179749 C59.8011715,36.179749 60.251046,35.7298745 60.251046,35.1755649 L60.251046,31.1588285 L60.251046,27.1420921 L60.251046,1.03330544 C60.251046,0.478995816 59.8011715,0.0291213389 59.2468619,0.0291213389 Z M58.2426778,34.1713808 L8.0334728,34.1713808 L8.0334728,32.1630126 L58.2426778,32.1630126 L58.2426778,34.1713808 Z M58.2426778,30.1546444 L8.0334728,30.1546444 L8.0334728,28.1462762 L58.2426778,28.1462762 L58.2426778,30.1546444 Z M58.2426778,26.1379079 L8.0334728,26.1379079 L8.0334728,2.03748954 L58.2426778,2.03748954 L58.2426778,26.1379079 Z" id="Shape"></path>
                        <path d="M55.2301255,8.06259414 C53.5340586,8.06259414 52.2175732,6.44284519 52.2175732,5.05004184 C52.2175732,4.49573222 51.7676987,4.04585774 51.2133891,4.04585774 L15.0627615,4.04585774 C14.5084519,4.04585774 14.0585774,4.49573222 14.0585774,5.05004184 C14.0585774,6.44284519 12.7420921,8.06259414 11.0460251,8.06259414 C10.4917155,8.06259414 10.041841,8.51246862 10.041841,9.06677824 L10.041841,19.1086192 C10.041841,19.6629289 10.4917155,20.1128033 11.0460251,20.1128033 C12.7069456,20.1128033 14.0585774,21.4644351 14.0585774,23.1253556 C14.0585774,23.6796653 14.5084519,24.1295397 15.0627615,24.1295397 L51.2133891,24.1295397 C51.7676987,24.1295397 52.2175732,23.6796653 52.2175732,23.1253556 C52.2175732,21.4644351 53.569205,20.1128033 55.2301255,20.1128033 C55.7844351,20.1128033 56.2343096,19.6629289 56.2343096,19.1086192 L56.2343096,9.06677824 C56.2343096,8.51246862 55.7844351,8.06259414 55.2301255,8.06259414 Z M54.2259414,18.2058577 C52.2617573,18.605523 50.7102929,20.1569874 50.3106276,22.1211715 L15.965523,22.1211715 C15.5658577,20.1569874 14.0143933,18.605523 12.0502092,18.2058577 L12.0502092,9.96150628 C13.9551464,9.53974895 15.534728,7.96016736 15.9564854,6.05523013 L50.3196653,6.05523013 C50.7414226,7.96016736 52.3210042,9.53974895 54.2259414,9.96150628 L54.2259414,18.2058577 Z" id="Shape"></path>
                        <path d="M33.1380753,8.06259414 C29.8152301,8.06259414 27.1129707,10.7648536 27.1129707,14.0876987 C27.1129707,17.4105439 29.8152301,20.1128033 33.1380753,20.1128033 C36.4609205,20.1128033 39.1631799,17.4105439 39.1631799,14.0876987 C39.1631799,10.7648536 36.4609205,8.06259414 33.1380753,8.06259414 Z M33.1380753,18.1044351 C30.9228452,18.1044351 29.1213389,16.3029289 29.1213389,14.0876987 C29.1213389,11.8724686 30.9228452,10.0709623 33.1380753,10.0709623 C35.3533054,10.0709623 37.1548117,11.8724686 37.1548117,14.0876987 C37.1548117,16.3029289 35.3533054,18.1044351 33.1380753,18.1044351 Z" id="Shape"></path>
                        <path d="M55.063431,41.3984937 C54.3203347,40.772887 53.345272,40.5117992 52.3882845,40.6764854 L32.4753138,44.1389121 L26.8187448,38.4823431 C26.6309623,38.2935565 26.3748954,38.1881172 26.1087866,38.1881172 L16.0669456,38.1881172 L12.0502092,38.1881172 L0,38.1881172 L0,40.1964854 L11.0460251,40.1964854 L11.0460251,52.2466946 L0,52.2466946 L0,54.2550628 L12.0502092,54.2550628 L16.0669456,54.2550628 L18.8425105,54.2550628 L29.5782427,59.623431 C30.0431799,59.8553975 30.545272,59.9708787 31.0463598,59.9708787 C31.6177406,59.9708787 32.1881172,59.8212552 32.6992469,59.5230126 L54.6045188,46.7447699 C55.6087029,46.1583264 56.2333054,45.0717992 56.2333054,43.9099582 C56.2333054,42.9389121 55.8075314,42.0230962 55.063431,41.3984937 Z M15.0627615,52.2466946 L13.0543933,52.2466946 L13.0543933,40.1964854 L15.0627615,40.1964854 L15.0627615,52.2466946 Z M53.5943096,45.0095397 L31.6880335,57.7877824 C31.3154812,58.0046862 30.8625941,58.0177406 30.4759833,57.8269456 L19.5283682,52.3531381 C19.3897908,52.2828452 19.2351464,52.2466946 19.0794979,52.2466946 L17.0711297,52.2466946 L17.0711297,40.1964854 L25.6930544,40.1964854 L33.6040167,48.1074477 C33.9514644,48.4548954 34.1422594,48.9158159 34.1422594,49.4058577 C34.1422594,50.4190795 33.3188285,51.2425105 32.3056067,51.2425105 C31.8155649,51.2425105 31.3546444,51.0517155 31.0071967,50.7042678 L25.8145607,45.5116318 L24.3946444,46.9315481 L29.5872803,52.1241841 C30.3143096,52.8512134 31.2793305,53.2508787 32.3056067,53.2508787 C34.4264435,53.2508787 36.1506276,51.5266946 36.1506276,49.4058577 C36.1506276,48.3795816 35.7509623,47.4135565 35.0239331,46.6875314 L34.2115481,45.8751464 L52.7337238,42.6537238 C53.105272,42.5894561 53.4838494,42.6908787 53.7720502,42.9338912 C54.060251,43.1769038 54.2259414,43.5323849 54.2259414,43.908954 C54.2259414,44.3598326 53.9839331,44.78159 53.5943096,45.0095397 Z" id="Shape"></path>
                    </g>
                </g>
            </g>
        </g>
    </g>
</svg>