<?xml version="1.0" encoding="UTF-8"?>
<svg width="47px" height="53px" viewBox="0 0 47 53" version="1.1" xmlns="http://www.w3.org/2000/svg" xmlns:xlink="http://www.w3.org/1999/xlink">
    <!-- Generator: Sketch 46.2 (44496) - http://www.bohemiancoding.com/sketch -->
    <title>credit-card</title>
    <desc>Created with Sketch.</desc>
    <defs></defs>
    <g id="Symbols" stroke="none" stroke-width="1" fill="none" fill-rule="evenodd" opacity="0.35">
        <g id="Form-thanh-toán-2" transform="translate(-183.000000, -111.000000)" fill-rule="nonzero" fill="#FFFFFF">
            <g id="Group-Copy" transform="translate(0.000000, 82.000000)">
                <g id="bg">
                    <g id="credit-card" transform="translate(183.000000, 29.000000)">
                        <path d="M46,15 L43,15 L43,5 C43,2.243 40.757,0 38,0 L10,0 C7.243,0 5,2.243 5,5 L5,34.638 L0.231,40.36 C0.082,40.54 0,40.766 0,41 L0,60 L2,60 L2,41.362 L5,37.762 L5,47 C5,47.404 5.243,47.769 5.617,47.924 C5.991,48.078 6.421,47.994 6.707,47.707 L10.707,43.707 C10.895,43.52 11,43.265 11,43 L11,36.5 C11,35.673 11.673,35 12.5,35 C13.327,35 14,35.673 14,36.5 L14,53.586 L10.293,57.293 C10.105,57.48 10,57.735 10,58 L10,60 L12,60 L12,58.414 L15.707,54.707 C15.895,54.52 16,54.265 16,54 L16,53 L38,53 C40.757,53 43,50.757 43,48 L43,38 L46,38 C48.757,38 51,35.757 51,33 L51,20 C51,17.243 48.757,15 46,15 Z M7,5 C7,3.346 8.346,2 10,2 L38,2 C39.654,2 41,3.346 41,5 L41,7 L7,7 L7,5 Z M41,48 C41,49.654 39.654,51 38,51 L16,51 L16,46 L41,46 L41,48 Z M41,44 L16,44 L16,36.5 C16,34.57 14.43,33 12.5,33 C10.57,33 9,34.57 9,36.5 L9,42.586 L7,44.586 L7,9 L41,9 L41,15 L29,15 C29,12.794 27.206,11 25,11 C22.794,11 21,12.794 21,15 L21,16 L21,37 L21,38 C21,40.206 22.794,42 25,42 C27.206,42 29,40.206 29,38 L41,38 L41,44 Z M27,15 L23,15 C23,13.897 23.897,13 25,13 C26.103,13 27,13.897 27,15 Z M23,38 L27,38 C27,39.103 26.103,40 25,40 C23.897,40 23,39.103 23,38 Z M49,33 C49,34.654 47.654,36 46,36 L23,36 L23,27 L49,27 L49,33 Z M49,25 L23,25 L23,23 L49,23 L49,25 Z M49,21 L23,21 L23,17 L46,17 C47.654,17 49,18.346 49,20 L49,21 Z" id="Shape"></path>
                        <path d="M51,40 L49,40 C49,41.654 47.654,43 46,43 L46,45 C47.654,45 49,46.346 49,48 L51,48 C51,46.346 52.346,45 54,45 L54,43 C52.346,43 51,41.654 51,40 Z M50,45.031 C49.708,44.638 49.362,44.292 48.969,44 C49.362,43.708 49.708,43.362 50,42.969 C50.292,43.362 50.638,43.708 51.031,44 C50.638,44.292 50.292,44.638 50,45.031 Z" id="Shape"></path>
                        <path d="M16,23 L14,23 C14,24.654 12.654,26 11,26 L11,28 C12.654,28 14,29.346 14,31 L16,31 C16,29.346 17.346,28 19,28 L19,26 C17.346,26 16,24.654 16,23 Z M15,28.031 C14.708,27.638 14.362,27.292 13.969,27 C14.362,26.708 14.708,26.362 15,25.969 C15.292,26.362 15.638,26.708 16.031,27 C15.638,27.292 15.292,27.638 15,28.031 Z" id="Shape"></path>
                        <rect id="Rectangle-path" x="45" y="29" width="2" height="2"></rect>
                        <rect id="Rectangle-path" x="41" y="29" width="2" height="2"></rect>
                        <rect id="Rectangle-path" x="37" y="29" width="2" height="2"></rect>
                    </g>
                </g>
            </g>
        </g>
    </g>
</svg>