<?xml version="1.0" encoding="UTF-8"?>
<svg width="17px" height="16px" viewBox="0 0 17 16" version="1.1" xmlns="http://www.w3.org/2000/svg" xmlns:xlink="http://www.w3.org/1999/xlink">
    <!-- Generator: Sketch 46.2 (44496) - http://www.bohemiancoding.com/sketch -->
    <title>calendar</title>
    <desc>Created with Sketch.</desc>
    <defs></defs>
    <g id="Symbols" stroke="none" stroke-width="1" fill="none" fill-rule="evenodd">
        <g id="Form" transform="translate(-300.000000, -33.000000)" fill-rule="nonzero" fill="#525458">
            <g id="Group-5">
                <g id="Group-Copy-2" transform="translate(300.000000, 30.000000)">
                    <g id="calendar" transform="translate(0.000000, 3.000000)">
                        <path d="M14.3460153,1.10546565 L12.2207023,1.10546565 L12.2207023,0.57410687 C12.2207023,0.255328244 12.0081832,0.0427480916 11.6893435,0.0427480916 C11.3705038,0.0427480916 11.1579847,0.255267176 11.1579847,0.57410687 L11.1579847,1.10546565 L5.84470229,1.10546565 L5.84470229,0.57410687 C5.84470229,0.255328244 5.63218321,0.0427480916 5.31334351,0.0427480916 C4.99456489,0.0427480916 4.78198473,0.255267176 4.78198473,0.57410687 L4.78198473,1.10546565 L2.65667176,1.10546565 C1.16891603,1.10546565 2.84217094e-14,2.27438168 2.84217094e-14,3.7621374 L2.84217094e-14,13.3261679 C2.84217094e-14,14.8139237 1.16891603,15.9828397 2.65667176,15.9828397 L14.3460153,15.9828397 C15.833771,15.9828397 17.002687,14.8139237 17.002687,13.3261679 L17.002687,3.7621374 C17.002687,2.27438168 15.833771,1.10546565 14.3460153,1.10546565 L14.3460153,1.10546565 Z M1.06265649,3.7621374 C1.06265649,2.912 1.80653435,2.16812214 2.65667176,2.16812214 L4.78198473,2.16812214 L4.78198473,2.69948092 C4.78198473,3.01825954 4.99450382,3.23083969 5.31334351,3.23083969 C5.63212214,3.23083969 5.84470229,3.01832061 5.84470229,2.69948092 L5.84470229,2.16812214 L11.1580458,2.16812214 L11.1580458,2.69948092 C11.1580458,3.01825954 11.3705649,3.23083969 11.6894046,3.23083969 C12.0082443,3.23083969 12.2207634,3.01832061 12.2207634,2.69948092 L12.2207634,2.16812214 L14.3460763,2.16812214 C15.1962137,2.16812214 15.9400916,2.912 15.9400916,3.7621374 L15.9400916,5.35615267 L1.06265649,5.35615267 L1.06265649,3.7621374 L1.06265649,3.7621374 Z M15.9400305,13.3261679 C15.9400305,14.1763053 15.1961527,14.9201832 14.3460153,14.9201832 L2.65667176,14.9201832 C1.80653435,14.9201832 1.06265649,14.1763053 1.06265649,13.3261679 L1.06265649,6.41880916 L15.9400305,6.41880916 L15.9400305,13.3261679 Z" id="Shape"></path>
                        <path d="M3.71932824,13.3261679 C4.03810687,13.3261679 4.25068702,13.2199084 4.46320611,13.0073893 C4.67572519,12.7948702 4.78198473,12.4760305 4.78198473,12.2635115 C4.78198473,12.0509924 4.67572519,11.7321527 4.46320611,11.5196336 C4.03816794,11.0945954 3.40054962,11.0945954 2.97545038,11.5196336 C2.7629313,11.7321527 2.65667176,11.9446718 2.65667176,12.2635115 C2.65667176,12.4760305 2.7629313,12.7948702 2.97545038,13.0073893 C3.18796947,13.2199084 3.40054962,13.3261679 3.71932824,13.3261679 L3.71932824,13.3261679 Z" id="Shape"></path>
                        <path d="M3.71932824,10.1381374 C4.03810687,10.1381374 4.25068702,10.0318779 4.46320611,9.81935878 C4.67572519,9.60683969 4.78198473,9.288 4.78198473,9.07548092 C4.78198473,8.86296183 4.67572519,8.54412214 4.46320611,8.33160305 C4.03816794,7.90656489 3.40054962,7.90656489 2.97545038,8.33160305 C2.7629313,8.54412214 2.65667176,8.75664122 2.65667176,9.07548092 C2.65667176,9.39432061 2.7629313,9.60683969 2.97545038,9.81935878 C3.18796947,10.0318779 3.40054962,10.1381374 3.71932824,10.1381374 L3.71932824,10.1381374 Z" id="Shape"></path>
                        <path d="M6.90735878,13.3261679 C7.2261374,13.3261679 7.43871756,13.2199084 7.65123664,13.0073893 C7.86375573,12.7948702 7.97001527,12.4760305 7.97001527,12.2635115 C7.97001527,12.0509924 7.86375573,11.7321527 7.65123664,11.5196336 C7.22619847,11.0945954 6.58858015,11.0945954 6.16348092,11.5196336 C5.95096183,11.7321527 5.84470229,12.0509924 5.84470229,12.2635115 C5.84470229,12.4760305 5.95096183,12.7948702 6.16348092,13.0073893 C6.376,13.2199084 6.58858015,13.3261679 6.90735878,13.3261679 L6.90735878,13.3261679 Z" id="Shape"></path>
                        <path d="M6.90735878,10.1381374 C7.2261374,10.1381374 7.43871756,10.0318779 7.65123664,9.81935878 C7.86375573,9.60683969 7.97001527,9.288 7.97001527,9.07548092 C7.97001527,8.86296183 7.86375573,8.54412214 7.65123664,8.33160305 C7.22619847,7.90656489 6.58858015,7.90656489 6.16348092,8.33160305 C5.95096183,8.54412214 5.84470229,8.86296183 5.84470229,9.07548092 C5.84470229,9.288 5.95096183,9.60683969 6.16348092,9.81935878 C6.376,10.0318779 6.58858015,10.1381374 6.90735878,10.1381374 L6.90735878,10.1381374 Z" id="Shape"></path>
                        <path d="M10.0953282,13.3261679 C10.4141069,13.3261679 10.626687,13.2199084 10.8392061,13.0073893 C11.0517252,12.7948702 11.1579847,12.5823511 11.1579847,12.2635115 C11.1579847,11.9446718 11.0517252,11.7321527 10.8392061,11.5196336 C10.4141679,11.0945954 9.77654962,11.0945954 9.35145038,11.5196336 C9.1389313,11.7321527 9.03267176,12.0509924 9.03267176,12.2635115 C9.03267176,12.4760305 9.1389313,12.7948702 9.35145038,13.0073893 C9.56396947,13.2199084 9.77654962,13.3261679 10.0953282,13.3261679 L10.0953282,13.3261679 Z" id="Shape"></path>
                        <path d="M10.0953282,10.1381374 C10.4141069,10.1381374 10.626687,10.0318779 10.8392061,9.81935878 C11.0517252,9.60683969 11.1579847,9.39432061 11.1579847,9.07548092 C11.1579847,8.86296183 11.0517252,8.54412214 10.8392061,8.33160305 C10.4141679,7.90656489 9.77654962,7.90656489 9.35145038,8.33160305 C9.1389313,8.54412214 9.03267176,8.86296183 9.03267176,9.07548092 C9.03267176,9.288 9.1389313,9.60683969 9.35145038,9.81935878 C9.56396947,10.0318779 9.77654962,10.1381374 10.0953282,10.1381374 L10.0953282,10.1381374 Z" id="Shape"></path>
                        <path d="M13.2833588,13.3261679 C13.6021374,13.3261679 13.8147176,13.2199084 14.0272366,13.0073893 C14.2397557,12.7948702 14.3460153,12.4760305 14.3460153,12.2635115 C14.3460153,12.0509924 14.2397557,11.7321527 14.0272366,11.5196336 C13.6021985,11.0945954 12.9645802,11.0945954 12.5394809,11.5196336 C12.3269618,11.7321527 12.2207023,11.9446718 12.2207023,12.2635115 C12.2207023,12.4760305 12.3269618,12.7948702 12.5394809,13.0073893 C12.752,13.2199084 12.9645802,13.3261679 13.2833588,13.3261679 L13.2833588,13.3261679 Z" id="Shape"></path>
                        <path d="M13.2833588,10.1381374 C13.6021374,10.1381374 13.8147176,10.0318779 14.0272366,9.81935878 C14.2397557,9.60683969 14.3460153,9.39432061 14.3460153,9.07548092 C14.3460153,8.86296183 14.2397557,8.54412214 14.0272366,8.33160305 C13.6021985,7.90656489 12.9645802,7.90656489 12.5394809,8.33160305 C12.3269618,8.54412214 12.2207023,8.86296183 12.2207023,9.07548092 C12.2207023,9.288 12.3269618,9.60683969 12.5394809,9.81935878 C12.752,10.0318779 12.9645802,10.1381374 13.2833588,10.1381374 L13.2833588,10.1381374 Z" id="Shape"></path>
                    </g>
                </g>
            </g>
        </g>
    </g>
</svg>