<?xml version="1.0" encoding="utf-8"?>
<!-- Generator: Adobe Illustrator 22.0.0, SVG Export Plug-In . SVG Version: 6.00 Build 0)  -->
<svg version="1.1" id="Layer_1" xmlns="http://www.w3.org/2000/svg" xmlns:xlink="http://www.w3.org/1999/xlink" x="0px" y="0px"
	 viewBox="0 0 16 14" style="enable-background:new 0 0 16 14;" xml:space="preserve">
<style type="text/css">
	.st0{enable-background:new    ;}
	.st1{fill:#FFFFFF;}
</style>
<g class="st0">
	<path class="st1" d="M16,7.8v3c0,0.1,0,0.1-0.1,0.2S15.8,11,15.8,11H15v1c0,0.4-0.1,0.8-0.4,1.1c-0.3,0.3-0.6,0.4-1.1,0.4
		c-0.4,0-0.8-0.1-1.1-0.4C12.1,12.8,12,12.4,12,12v-1H4v1c0,0.4-0.1,0.8-0.4,1.1c-0.3,0.3-0.6,0.4-1.1,0.4c-0.4,0-0.8-0.1-1.1-0.4
		C1.1,12.8,1,12.4,1,12v-1H0.2c-0.1,0-0.1,0-0.2-0.1S0,10.8,0,10.8v-3c0-0.5,0.2-0.9,0.5-1.2C0.9,6.2,1.3,6,1.8,6H2l0.8-3.3
		c0.1-0.5,0.4-0.9,0.8-1.2S4.5,1,5,1h6c0.5,0,1,0.2,1.4,0.5s0.7,0.7,0.8,1.2L14,6h0.2c0.5,0,0.9,0.2,1.2,0.5C15.8,6.9,16,7.3,16,7.8
		z M3.4,9.4c0.2-0.2,0.4-0.5,0.4-0.9S3.6,7.9,3.4,7.6C3.1,7.4,2.8,7.2,2.5,7.2S1.9,7.4,1.6,7.6C1.4,7.9,1.2,8.2,1.2,8.5
		s0.1,0.6,0.4,0.9c0.2,0.2,0.5,0.4,0.9,0.4S3.1,9.6,3.4,9.4z M4,6H12l-0.7-2.8c0,0,0-0.1-0.1-0.1S11,3,11,3H5c0,0-0.1,0-0.2,0.1
		S4.7,3.2,4.7,3.2L4,6z M14.4,9.4c0.2-0.2,0.4-0.5,0.4-0.9s-0.1-0.6-0.4-0.9c-0.2-0.2-0.5-0.4-0.9-0.4s-0.6,0.1-0.9,0.4
		c-0.2,0.2-0.4,0.5-0.4,0.9s0.1,0.6,0.4,0.9c0.2,0.2,0.5,0.4,0.9,0.4S14.1,9.6,14.4,9.4z"/>
</g>
</svg>
