<?xml version="1.0" encoding="UTF-8"?>
<svg width="13px" height="16px" viewBox="0 0 13 16" version="1.1" xmlns="http://www.w3.org/2000/svg" xmlns:xlink="http://www.w3.org/1999/xlink">
    <!-- Generator: Sketch 46.2 (44496) - http://www.bohemiancoding.com/sketch -->
    <title>placeholder</title>
    <desc>Created with Sketch.</desc>
    <defs></defs>
    <g id="Symbols" stroke="none" stroke-width="1" fill="none" fill-rule="evenodd">
        <g id="Form" transform="translate(-37.000000, -33.000000)" fill-rule="nonzero" fill="#525458">
            <g id="Group-5">
                <g id="placeholder" transform="translate(37.000000, 33.000000)">
                    <path d="M6.42012579,0 C2.88469602,0 0.00670859539,2.87798742 0.00670859539,6.41341719 C0.00670859539,6.81593291 0.04360587,7.22180294 0.120754717,7.61761006 C0.124109015,7.64109015 0.137526205,7.7115304 0.164360587,7.83228512 C0.26163522,8.26498952 0.405870021,8.69098532 0.593710692,9.09685535 C1.28469602,10.7236897 2.80419287,13.2226415 6.13836478,15.8993711 C6.22222222,15.966457 6.32285115,16 6.42348008,16 C6.52410901,16 6.62473795,15.966457 6.70859539,15.8993711 C10.039413,13.2226415 11.5622642,10.7236897 12.2532495,9.09685535 C12.4410901,8.69098532 12.5853249,8.26834382 12.6825996,7.83228512 C12.709434,7.7115304 12.7228512,7.64109015 12.7262055,7.61761006 C12.8,7.22180294 12.8402516,6.81593291 12.8402516,6.41341719 C12.833543,2.87798742 9.95555556,0 6.42012579,0 Z M11.8272537,7.45995807 C11.8272537,7.46666667 11.8238994,7.47337526 11.8238994,7.48008386 C11.8205451,7.49685535 11.8104822,7.54716981 11.7937107,7.62431866 C11.7937107,7.62767296 11.7937107,7.62767296 11.7937107,7.63102725 C11.7098532,8.0067086 11.5857442,8.37232704 11.4213836,8.7245283 C11.4180294,8.7278826 11.4180294,8.73459119 11.4146751,8.73794549 C10.7874214,10.2238994 9.41215933,12.4914046 6.42012579,14.963522 C3.42809224,12.4914046 2.05283019,10.2238994 1.42557652,8.73794549 C1.42222222,8.73459119 1.42222222,8.7278826 1.41886792,8.7245283 C1.25786164,8.37568134 1.13375262,8.0067086 1.04654088,7.63102725 C1.04654088,7.62767296 1.04654088,7.62767296 1.04654088,7.62431866 C1.02641509,7.54716981 1.0197065,7.49685535 1.0163522,7.48008386 C1.0163522,7.47337526 1.0129979,7.46666667 1.0129979,7.45660377 C0.94591195,7.11111111 0.912368973,6.76226415 0.912368973,6.41006289 C0.912368973,3.37442348 3.38448637,0.90230608 6.42012579,0.90230608 C9.4557652,0.90230608 11.9278826,3.37442348 11.9278826,6.41006289 C11.9278826,6.76561845 11.8943396,7.11781971 11.8272537,7.45995807 Z" id="Shape"></path>
                    <path d="M6.42012579,3.68972746 C4.88036223,3.68972746 3.62599581,4.94409389 3.62599581,6.48385744 C3.62599581,8.023621 4.88036223,9.27798742 6.42012579,9.27798742 C7.95988934,9.27798742 9.21425577,8.023621 9.21425577,6.48385744 C9.21425577,4.94409389 7.95988934,3.68972746 6.42012579,3.68972746 Z M6.42012579,8.65655818 C5.22099752,8.65655818 4.24742504,7.68068412 4.24742504,6.48385744 C4.24742504,5.28703076 5.22329911,4.3111567 6.42012579,4.3111567 C7.61695247,4.3111567 8.59282653,5.28703076 8.59282653,6.48385744 C8.59282653,7.68068412 7.61925406,8.65655818 6.42012579,8.65655818 Z" id="Shape"></path>
                </g>
            </g>
        </g>
    </g>
</svg>