<?xml version="1.0" encoding="UTF-8"?>
<svg width="11px" height="6px" viewBox="0 0 11 6" version="1.1" xmlns="http://www.w3.org/2000/svg" xmlns:xlink="http://www.w3.org/1999/xlink">
    <!-- Generator: Sketch 46.2 (44496) - http://www.bohemiancoding.com/sketch -->
    <title>caret down</title>
    <desc>Created with Sketch.</desc>
    <defs></defs>
    <g id="Symbols" stroke="none" stroke-width="1" fill="none" fill-rule="evenodd" opacity="0.5">
        <g id="Select" transform="translate(-187.000000, -17.000000)" fill="#525458">
            <g id="caret-down" transform="translate(187.000000, 17.000000)">
                <g id="sort-down">
                    <path d="M10.3711446,0.230493976 C10.2405181,0.0997590361 10.0856747,0.0344457831 9.90675904,0.0344457831 L0.660506024,0.0344457831 C0.481518072,0.0344457831 0.326783133,0.0997590361 0.196048193,0.230493976 C0.065313253,0.361373494 0,0.516108434 0,0.694987952 C0,0.873831325 0.065313253,1.02856627 0.196048193,1.15933735 L4.81919277,5.78248193 C4.95007229,5.91321687 5.10480723,5.9786747 5.2836506,5.9786747 C5.46249398,5.9786747 5.61737349,5.91321687 5.748,5.78248193 L10.3711446,1.1593012 C10.5017349,1.02856627 10.5673012,0.873831325 10.5673012,0.694951807 C10.5673012,0.516108434 10.5017349,0.361373494 10.3711446,0.230493976 Z" id="Shape" fill-rule="nonzero"></path>
                </g>
            </g>
        </g>
    </g>
</svg>