<?xml version="1.0" encoding="utf-8"?>
<!-- Generator: Adobe Illustrator 22.0.0, SVG Export Plug-In . SVG Version: 6.00 Build 0)  -->
<svg version="1.1" id="Layer_1" xmlns="http://www.w3.org/2000/svg" xmlns:xlink="http://www.w3.org/1999/xlink" x="0px" y="0px"
	 viewBox="0 0 9 14" style="enable-background:new 0 0 9 14;" xml:space="preserve">
<style type="text/css">
	.st0{enable-background:new    ;}
	.st1{fill:#95989A;}
</style>
<g class="st0">
	<path class="st1" d="M8.4,5.8c0,0.1,0,0.1-0.1,0.2L4.7,9.6C4.6,9.6,4.6,9.6,4.5,9.6c-0.1,0-0.1,0-0.2-0.1L0.7,5.9
		C0.6,5.9,0.6,5.8,0.6,5.8s0-0.1,0.1-0.2l0.4-0.4c0.1-0.1,0.1-0.1,0.2-0.1c0.1,0,0.1,0,0.2,0.1l3.1,3.1l3.1-3.1
		c0.1-0.1,0.1-0.1,0.2-0.1c0.1,0,0.1,0,0.2,0.1l0.4,0.4C8.4,5.6,8.4,5.7,8.4,5.8z"/>
</g>
</svg>
