<?xml version="1.0" encoding="UTF-8"?>
<svg width="47px" height="53px" viewBox="0 0 47 53" version="1.1" xmlns="http://www.w3.org/2000/svg" xmlns:xlink="http://www.w3.org/1999/xlink">
    <!-- Generator: Sketch 46.2 (44496) - http://www.bohemiancoding.com/sketch -->
    <title>investment</title>
    <desc>Created with Sketch.</desc>
    <defs></defs>
    <g id="Symbols" stroke="none" stroke-width="1" fill="none" fill-rule="evenodd" opacity="0.35">
        <g id="Form-thanh-toán-2" transform="translate(-183.000000, -275.000000)" fill-rule="nonzero" fill="#FFFFFF">
            <g id="Group-Copy-3" transform="translate(0.000000, 246.000000)">
                <g id="investment">
                    <g transform="translate(180.000000, 29.000000)" id="Shape">
                        <path d="M59,53 L57,53 L57,19 C57,16.243 54.757,14 52,14 L42.949,14 C42.975,13.669 43,13.338 43,13 C43,5.832 37.168,0 30,0 C22.832,0 17,5.832 17,13 C17,13.338 17.025,13.669 17.051,14 L8,14 C5.243,14 3,16.243 3,19 L3,53 L1,53 C0.447,53 0,53.447 0,54 L0,55 C0,57.757 2.243,60 5,60 L55,60 C57.757,60 60,57.757 60,55 L60,54 C60,53.447 59.553,53 59,53 Z M30,2 C36.065,2 41,6.935 41,13 C41,16.859 38.999,20.254 35.984,22.218 C35.586,22.477 35.172,22.708 34.746,22.909 C34.7,22.931 34.654,22.954 34.607,22.976 C31.713,24.291 28.287,24.291 25.393,22.976 C25.346,22.954 25.301,22.931 25.255,22.909 C24.829,22.708 24.415,22.477 24.017,22.218 C21.001,20.254 19,16.859 19,13 C19,6.935 23.935,2 30,2 Z M43,33 L37,33 C36.447,33 36,33.447 36,34 L36,49 L34,49 L34,38 C34,37.447 33.553,37 33,37 L27,37 C26.447,37 26,37.447 26,38 L26,49 L24,49 L24,42 C24,41.447 23.553,41 23,41 L17,41 C16.447,41 16,41.447 16,42 L16,49 L9,49 L9,20 L19.063,20 C19.524,20.718 20.052,21.388 20.641,22 L17,22 C14.794,22 13,23.794 13,26 C13,28.206 14.794,30 17,30 L43,30 C45.206,30 47,28.206 47,26 C47,23.794 45.206,22 43,22 L39.359,22 C39.948,21.388 40.476,20.718 40.937,20 L51,20 L51,49 L44,49 L44,34 C44,33.447 43.553,33 43,33 Z M42,35 L42,49 L38,49 L38,35 L42,35 Z M32,39 L32,49 L28,49 L28,39 L32,39 Z M22,43 L22,49 L18,49 L18,43 L22,43 Z M23.077,24 C23.289,24.133 23.505,24.256 23.723,24.377 C23.759,24.397 23.793,24.42 23.83,24.439 C24.163,24.619 24.503,24.781 24.849,24.93 C24.939,24.969 25.031,25.004 25.122,25.041 C25.397,25.153 25.676,25.255 25.958,25.347 C26.053,25.378 26.146,25.411 26.241,25.44 C26.602,25.549 26.967,25.645 27.337,25.723 C27.403,25.737 27.471,25.746 27.537,25.758 C27.856,25.819 28.177,25.868 28.501,25.906 C28.608,25.918 28.714,25.93 28.821,25.94 C29.212,25.976 29.604,26 30,26 C30.396,26 30.788,25.976 31.179,25.94 C31.286,25.93 31.393,25.918 31.499,25.906 C31.823,25.869 32.144,25.82 32.463,25.758 C32.529,25.745 32.597,25.736 32.663,25.723 C33.033,25.646 33.398,25.55 33.759,25.44 C33.854,25.411 33.948,25.378 34.042,25.347 C34.324,25.255 34.602,25.152 34.878,25.041 C34.969,25.004 35.061,24.969 35.151,24.93 C35.496,24.78 35.837,24.619 36.17,24.439 C36.206,24.419 36.241,24.397 36.277,24.377 C36.495,24.256 36.712,24.134 36.923,24 L43,24 C44.103,24 45,24.897 45,26 C45,27.103 44.103,28 43,28 L17,28 C15.897,28 15,27.103 15,26 C15,24.897 15.897,24 17,24 L23.077,24 Z M5,19 C5,17.346 6.346,16 8,16 L17.363,16 C17.526,16.688 17.734,17.359 18.003,18 L8,18 C7.447,18 7,18.447 7,19 L7,50 C7,50.553 7.447,51 8,51 L17,51 L23,51 L27,51 L33,51 L37,51 L43,51 L52,51 C52.553,51 53,50.553 53,50 L53,19 C53,18.447 52.553,18 52,18 L41.997,18 C42.265,17.359 42.473,16.688 42.637,16 L52,16 C53.654,16 55,17.346 55,19 L55,53 L5,53 L5,19 Z M55,58 L5,58 C3.346,58 2,56.654 2,55 L4,55 L56,55 L58,55 C58,56.654 56.654,58 55,58 Z"></path>
                        <path d="M30,4 C25.037,4 21,8.037 21,13 C21,17.963 25.037,22 30,22 C34.963,22 39,17.963 39,13 C39,8.037 34.963,4 30,4 Z M30,20 C26.141,20 23,16.859 23,13 C23,9.141 26.141,6 30,6 C33.859,6 37,9.141 37,13 C37,16.859 33.859,20 30,20 Z"></path>
                        <path d="M30,12 C29.448,12 29,11.552 29,11 C29,10.448 29.448,10 30,10 C30.552,10 31,10.448 31,11 L33,11 C33,9.698 32.161,8.598 31,8.184 L31,7 L29,7 L29,8.184 C27.839,8.598 27,9.698 27,11 C27,12.654 28.346,14 30,14 C30.552,14 31,14.448 31,15 C31,15.552 30.552,16 30,16 C29.448,16 29,15.552 29,15 L27,15 C27,16.302 27.839,17.402 29,17.816 L29,19 L31,19 L31,17.816 C32.161,17.402 33,16.302 33,15 C33,13.346 31.654,12 30,12 Z"></path>
                    </g>
                </g>
            </g>
        </g>
    </g>
</svg>