<?xml version="1.0" encoding="UTF-8"?>
<svg width="10px" height="10px" viewBox="0 0 10 10" version="1.1" xmlns="http://www.w3.org/2000/svg" xmlns:xlink="http://www.w3.org/1999/xlink">
    <!-- Generator: Sketch 46.2 (44496) - http://www.bohemiancoding.com/sketch -->
    <title>icon info</title>
    <desc>Created with Sketch.</desc>
    <defs></defs>
    <g id="Symbols" stroke="none" stroke-width="1" fill="none" fill-rule="evenodd">
        <g id="Form-thanh-toán-2" transform="translate(-544.000000, -166.000000)">
            <g id="icon-info" transform="translate(543.000000, 165.000000)">
                <g id="ic_info_black_24px">
                    <polygon id="Shape" points="0 0 12 0 12 12 0 12"></polygon>
                    <path d="M6,1 C3.24,1 1,3.24 1,6 C1,8.76 3.24,11 6,11 C8.76,11 11,8.76 11,6 C11,3.24 8.76,1 6,1 Z M6.5,8.5 L5.5,8.5 L5.5,5.5 L6.5,5.5 L6.5,8.5 Z M6.5,4.5 L5.5,4.5 L5.5,3.5 L6.5,3.5 L6.5,4.5 Z" id="Shape" fill="#9B9B9B" fill-rule="nonzero"></path>
                </g>
            </g>
        </g>
    </g>
</svg>