<?xml version="1.0" encoding="UTF-8"?>
<svg width="60px" height="60px" viewBox="0 0 60 60" version="1.1" xmlns="http://www.w3.org/2000/svg" xmlns:xlink="http://www.w3.org/1999/xlink">
    <!-- Generator: Sketch 46.2 (44496) - http://www.bohemiancoding.com/sketch -->
    <title>mobile-payment</title>
    <desc>Created with Sketch.</desc>
    <defs></defs>
    <g id="Symbols" stroke="none" stroke-width="1" fill="none" fill-rule="evenodd" opacity="0.35">
        <g id="Form-thanh-toán-2" transform="translate(-180.000000, -24.000000)" fill-rule="nonzero" fill="#FFFFFF">
            <g id="Group">
                <g id="bg">
                    <g id="mobile-payment">
                        <g transform="translate(180.000000, 24.000000)">
                            <path d="M28,32 C26.462,32 25.063,32.586 24,33.54 L24,27 C24,25.346 22.654,24 21,24 L7,24 C5.346,24 4,25.346 4,27 L4,35.184 C3.686,35.072 3.352,35 3,35 C1.346,35 0,36.346 0,38 C0,38.771 0.301,39.468 0.78,40 C0.301,40.532 0,41.229 0,42 C0,42.771 0.301,43.468 0.78,44 C0.301,44.532 0,45.229 0,46 C0,46.771 0.301,47.468 0.78,48 C0.301,48.532 0,49.229 0,50 C0,51.654 1.346,53 3,53 C3.352,53 3.686,52.928 4,52.816 L4,53 C4,54.654 5.346,56 7,56 L9,56 L9,60 L11,60 L11,56 L21,56 C22.654,56 24,54.654 24,53 L24,41 L24,38 C24,36.14 25.276,34.572 27,34.126 L27,60 L29,60 L29,33 C29,32.448 28.553,32 28,32 Z M3,51 C2.448,51 2,50.551 2,50 C2,49.449 2.448,49 3,49 C3.552,49 4,49.449 4,50 C4,50.551 3.552,51 3,51 Z M3,47 C2.448,47 2,46.551 2,46 C2,45.449 2.448,45 3,45 C3.552,45 4,45.449 4,46 C4,46.551 3.552,47 3,47 Z M3,43 C2.448,43 2,42.551 2,42 C2,41.449 2.448,41 3,41 C3.552,41 4,41.449 4,42 C4,42.551 3.552,43 3,43 Z M3,39 C2.448,39 2,38.551 2,38 C2,37.449 2.448,37 3,37 C3.552,37 4,37.449 4,38 C4,38.551 3.552,39 3,39 Z M22,53 C22,53.551 21.552,54 21,54 L7,54 C6.448,54 6,53.551 6,53 L6,51 L22,51 L22,53 Z M22,38 L22,41 L22,49 L6,49 L6,31 L22,31 L22,38 Z M22,29 L6,29 L6,27 C6,26.449 6.448,26 7,26 L21,26 C21.552,26 22,26.449 22,27 L22,29 Z" id="Shape"></path>
                            <path d="M43,0 C33.626,0 26,7.626 26,17 C26,26.374 33.626,34 43,34 C52.374,34 60,26.374 60,17 C60,7.626 52.374,0 43,0 Z M43,32 C34.729,32 28,25.271 28,17 C28,8.729 34.729,2 43,2 C51.271,2 58,8.729 58,17 C58,25.271 51.271,32 43,32 Z" id="Shape"></path>
                            <path d="M43,4 C35.832,4 30,9.832 30,17 C30,24.168 35.832,30 43,30 C50.168,30 56,24.168 56,17 C56,9.832 50.168,4 43,4 Z M43,28 C36.935,28 32,23.065 32,17 C32,10.935 36.935,6 43,6 C49.065,6 54,10.935 54,17 C54,23.065 49.065,28 43,28 Z" id="Shape"></path>
                            <path d="M44,16 L42,16 C40.897,16 40,15.103 40,14 C40,12.897 40.897,12 42,12 L44,12 C45.103,12 46,12.897 46,14 L48,14 C48,11.794 46.206,10 44,10 L44,8 L42,8 L42,10 C39.794,10 38,11.794 38,14 C38,16.206 39.794,18 42,18 L44,18 C45.103,18 46,18.897 46,20 C46,21.103 45.103,22 44,22 L42,22 C40.897,22 40,21.103 40,20 L38,20 C38,22.206 39.794,24 42,24 L42,26 L44,26 L44,24 C46.206,24 48,22.206 48,20 C48,17.794 46.206,16 44,16 Z" id="Shape"></path>
                            <rect id="Rectangle-path" x="34" y="16" width="2" height="2"></rect>
                            <rect id="Rectangle-path" x="50" y="16" width="2" height="2"></rect>
                            <rect id="Rectangle-path" x="14" y="12" width="2" height="2"></rect>
                            <rect id="Rectangle-path" x="18" y="12" width="2" height="2"></rect>
                            <rect id="Rectangle-path" x="22" y="12" width="2" height="2"></rect>
                            <rect id="Rectangle-path" x="10" y="12" width="2" height="2"></rect>
                            <rect id="Rectangle-path" x="10" y="16" width="2" height="2"></rect>
                            <rect id="Rectangle-path" x="10" y="20" width="2" height="2"></rect>
                            <rect id="Rectangle-path" x="35" y="50" width="2" height="2"></rect>
                            <rect id="Rectangle-path" x="31" y="50" width="2" height="2"></rect>
                            <rect id="Rectangle-path" x="39" y="50" width="2" height="2"></rect>
                            <rect id="Rectangle-path" x="43" y="50" width="2" height="2"></rect>
                            <rect id="Rectangle-path" x="47" y="50" width="2" height="2"></rect>
                            <rect id="Rectangle-path" x="51" y="50" width="2" height="2"></rect>
                            <rect id="Rectangle-path" x="51" y="46" width="2" height="2"></rect>
                            <rect id="Rectangle-path" x="51" y="42" width="2" height="2"></rect>
                            <rect id="Rectangle-path" x="51" y="38" width="2" height="2"></rect>
                            <rect id="Rectangle-path" x="51" y="34" width="2" height="2"></rect>
                            <path d="M18.293,35.293 L13,40.586 L10.707,38.293 L9.293,39.707 L12.293,42.707 C12.488,42.902 12.744,43 13,43 C13.256,43 13.512,42.902 13.707,42.707 L19.707,36.707 L18.293,35.293 Z" id="Shape"></path>
                        </g>
                    </g>
                </g>
            </g>
        </g>
    </g>
</svg>