<?xml version="1.0" encoding="UTF-8"?>
<svg width="7px" height="10px" viewBox="0 0 7 10" version="1.1" xmlns="http://www.w3.org/2000/svg" xmlns:xlink="http://www.w3.org/1999/xlink">
    <!-- Generator: Sketch 46.2 (44496) - http://www.bohemiancoding.com/sketch -->
    <title>Group</title>
    <desc>Created with Sketch.</desc>
    <defs></defs>
    <g id="Symbols" stroke="none" stroke-width="1" fill="none" fill-rule="evenodd" opacity="0.5">
        <g id="Filter-option" transform="translate(-115.000000, -6.000000)" fill="#525458">
            <g id="Group" transform="translate(115.000000, 6.000000)">
                <g id="caret-down" transform="translate(0.000000, 6.000000)">
                    <g id="sort-down">
                        <path d="M6.59981928,0.153662651 C6.51669332,0.0665060241 6.41815663,0.0229638554 6.3043012,0.0229638554 L0.420322015,0.0229638554 C0.306420591,0.0229638554 0.207952903,0.0665060241 0.124757941,0.153662651 C0.0415629792,0.240915663 0,0.344072289 0,0.463325301 C0,0.582554217 0.0415629792,0.685710843 0.124757941,0.772891566 L3.06675904,3.85498795 C3.150046,3.94214458 3.24851369,3.98578313 3.36232311,3.98578313 C3.47613253,3.98578313 3.57469222,3.94214458 3.65781818,3.85498795 L6.59981928,0.77286747 C6.68292223,0.685710843 6.72464622,0.582554217 6.72464622,0.463301205 C6.72464622,0.344072289 6.68292223,0.240915663 6.59981928,0.153662651 Z" id="Shape" fill-rule="nonzero"></path>
                    </g>
                </g>
                <g id="caret-down" transform="translate(3.666667, 2.000000) scale(1, -1) translate(-3.666667, -2.000000) ">
                    <g id="sort-down">
                        <path d="M6.59981928,0.153662651 C6.51669332,0.0665060241 6.41815663,0.0229638554 6.3043012,0.0229638554 L0.420322015,0.0229638554 C0.306420591,0.0229638554 0.207952903,0.0665060241 0.124757941,0.153662651 C0.0415629792,0.240915663 0,0.344072289 0,0.463325301 C0,0.582554217 0.0415629792,0.685710843 0.124757941,0.772891566 L3.06675904,3.85498795 C3.150046,3.94214458 3.24851369,3.98578313 3.36232311,3.98578313 C3.47613253,3.98578313 3.57469222,3.94214458 3.65781818,3.85498795 L6.59981928,0.77286747 C6.68292223,0.685710843 6.72464622,0.582554217 6.72464622,0.463301205 C6.72464622,0.344072289 6.68292223,0.240915663 6.59981928,0.153662651 Z" id="Shape" fill-rule="nonzero"></path>
                    </g>
                </g>
            </g>
        </g>
    </g>
</svg>