<?xml version="1.0" encoding="UTF-8"?>
<svg width="24px" height="22px" viewBox="0 0 24 22" version="1.1" xmlns="http://www.w3.org/2000/svg" xmlns:xlink="http://www.w3.org/1999/xlink">
    <!-- Generator: Sketch 46.2 (44496) - http://www.bohemiancoding.com/sketch -->
    <title>Page 1</title>
    <desc>Created with Sketch.</desc>
    <defs>
        <polygon id="path-1" points="21 14 21 0 0.538216543 0 0.538216543 14 21 14"></polygon>
    </defs>
    <g id="Symbols" stroke="none" stroke-width="1" fill="none" fill-rule="evenodd">
        <g id="Rotate">
            <g id="Page-1">
                <path d="M12.881,21 C7.946,21 3.696,17.315 2.995,12.429 C2.96,12.183 2.749,12 2.5,12 L1.707,12 L4.5,9.207 L7.293,12 L6.516,12 C6.369,12 6.229,12.065 6.134,12.177 C6.039,12.29 5.998,12.438 6.023,12.583 C6.794,17.17 10.73,20.5 15.381,20.5 C15.611,20.5 15.841,20.492 16.07,20.475 C15.051,20.82 13.976,21 12.881,21 M19.706,18.307 C18.392,19.087 16.896,19.5 15.381,19.5 C11.42,19.5 8.038,16.8 7.128,13 L8.5,13 C8.702,13 8.885,12.878 8.962,12.691 C9.04,12.504 8.997,12.29 8.854,12.146 L4.854,8.146 C4.658,7.951 4.342,7.951 4.147,8.146 L0.147,12.146 C0.004,12.29 -0.039,12.504 0.038,12.691 C0.115,12.878 0.298,13 0.5,13 L2.075,13 C3.027,18.161 7.597,22 12.881,22 C15.627,22 18.261,20.972 20.299,19.105 C20.488,18.933 20.516,18.645 20.363,18.439 C20.211,18.234 19.928,18.176 19.706,18.307" id="Fill-1" fill="#FF5D6E"></path>
                <g id="Group-5" transform="translate(3.000000, 0.000000)">
                    <mask id="mask-2" fill="white">
                        <use xlink:href="#path-1"></use>
                    </mask>
                    <g id="Clip-4"></g>
                    <path d="M16.5001,12.793 L13.7071,10 L14.4841,10 C14.6311,10 14.7711,9.935 14.8661,9.823 C14.9611,9.71 15.0021,9.562 14.9781,9.417 C14.2061,4.83 10.2711,1.5 5.6191,1.5 C5.3891,1.5 5.1591,1.508 4.9301,1.525 C5.9491,1.18 7.0241,1 8.1191,1 C13.0541,1 17.3041,4.685 18.0051,9.571 C18.0411,9.817 18.2511,10 18.5001,10 L19.2931,10 L16.5001,12.793 Z M20.5001,9 L18.9251,9 C17.9731,3.839 13.4031,0 8.1191,0 C5.3741,0 2.7391,1.028 0.7011,2.895 C0.5111,3.067 0.4841,3.355 0.6371,3.561 C0.7901,3.766 1.0711,3.823 1.2931,3.693 C2.6081,2.913 4.1041,2.5 5.6191,2.5 C9.5811,2.5 12.9621,5.2 13.8731,9 L12.5001,9 C12.2981,9 12.1151,9.122 12.0381,9.309 C11.9601,9.496 12.0031,9.71 12.1461,9.854 L16.1461,13.854 C16.2441,13.951 16.3721,14 16.5001,14 C16.6281,14 16.7561,13.951 16.8541,13.854 L20.8541,9.854 C20.9971,9.71 21.0401,9.496 20.9621,9.309 C20.8851,9.122 20.7021,9 20.5001,9 L20.5001,9 Z" id="Fill-3" fill="#FF5D6E" mask="url(#mask-2)"></path>
                </g>
            </g>
        </g>
    </g>
</svg>