<?xml version="1.0" encoding="UTF-8"?>
<svg width="51px" height="51px" viewBox="0 0 51 51" version="1.1" xmlns="http://www.w3.org/2000/svg" xmlns:xlink="http://www.w3.org/1999/xlink">
    <!-- Generator: Sketch 46.2 (44496) - http://www.bohemiancoding.com/sketch -->
    <title>truck</title>
    <desc>Created with Sketch.</desc>
    <defs></defs>
    <g id="Symbols" stroke="none" stroke-width="1" fill="none" fill-rule="evenodd" opacity="0.35">
        <g id="Form-thanh-toán-2" transform="translate(-179.000000, -359.000000)" fill-rule="nonzero" fill="#FFFFFF">
            <g id="Group-Copy-4" transform="translate(0.000000, 328.000000)">
                <g id="truck">
                    <g transform="translate(179.000000, 31.000000)" id="Shape">
                        <path d="M38.063,28.649 C38.206,28.271 38.572,28 39,28 C39.551,28 40,28.448 40,29 L42,29 C42,27.346 40.654,26 39,26 C37.346,26 36,27.346 36,29 C36,29.266 36.105,29.52 36.293,29.707 L39.937,33.351 C39.794,33.729 39.428,34 39,34 C38.449,34 38,33.552 38,33 L36,33 C36,34.654 37.346,36 39,36 C40.654,36 42,34.654 42,33 C42,32.734 41.895,32.48 41.707,32.293 L38.063,28.649 Z"></path>
                        <path d="M39,22 C34.038,22 30,26.037 30,31 C30,35.963 34.038,40 39,40 C43.962,40 48,35.963 48,31 C48,26.037 43.962,22 39,22 Z M39,38 C35.14,38 32,34.859 32,31 C32,27.141 35.14,24 39,24 C42.86,24 46,27.141 46,31 C46,34.859 42.86,38 39,38 Z"></path>
                        <path d="M59,0 L54.142,0 L25.858,0 L21,0 C20.448,0 20,0.447 20,1 L20,5.858 L20,10 L20,14.858 L20,19 L20,23.858 L20,24 L10,24 C9.672,24 9.365,24.161 9.178,24.431 L0.178,37.431 C0.062,37.598 0,37.797 0,38 L0,53 C0,53.553 0.448,54 1,54 L7,54 C7,57.309 9.691,60 13,60 C16.309,60 19,57.309 19,54 L39,54 C39,57.309 41.691,60 45,60 C48.309,60 51,57.309 51,54 L59,54 C59.552,54 60,53.553 60,53 L60,43 L60,38.142 L60,23.858 L60,19 L60,14.858 L60,10 L60,5.858 L60,1 C60,0.447 59.552,0 59,0 Z M22,2 L25,2 C25,3.654 23.654,5 22,5 L22,2 Z M22,11 L25,11 C25,12.654 23.654,14 22,14 L22,11 Z M22,20 L25,20 C25,21.654 23.654,23 22,23 L22,20 Z M22,39 C23.654,39 25,40.346 25,42 L22,42 L22,39 Z M13,58 C10.794,58 9,56.206 9,54 C9,53.725 9.028,53.457 9.081,53.197 C9.084,53.185 9.089,53.174 9.092,53.162 C9.142,52.927 9.214,52.7 9.303,52.483 C9.332,52.413 9.371,52.349 9.404,52.281 C9.477,52.128 9.554,51.977 9.646,51.836 C9.696,51.758 9.755,51.687 9.81,51.613 C9.899,51.494 9.991,51.379 10.093,51.271 C10.163,51.196 10.238,51.126 10.314,51.057 C10.415,50.965 10.52,50.877 10.63,50.796 C10.717,50.732 10.806,50.67 10.898,50.612 C11.012,50.541 11.132,50.478 11.254,50.419 C11.351,50.372 11.447,50.323 11.547,50.283 C11.687,50.228 11.833,50.187 11.981,50.148 C12.071,50.124 12.158,50.093 12.25,50.076 C12.493,50.029 12.743,50 13,50 C13.257,50 13.507,50.029 13.751,50.076 C13.843,50.094 13.93,50.124 14.02,50.148 C14.167,50.187 14.314,50.228 14.454,50.283 C14.555,50.323 14.651,50.371 14.747,50.419 C14.869,50.479 14.988,50.541 15.103,50.612 C15.195,50.669 15.284,50.731 15.371,50.796 C15.481,50.878 15.586,50.965 15.687,51.057 C15.763,51.126 15.838,51.196 15.908,51.271 C16.009,51.379 16.102,51.495 16.191,51.613 C16.246,51.687 16.305,51.758 16.355,51.836 C16.447,51.977 16.523,52.128 16.597,52.281 C16.63,52.349 16.669,52.413 16.698,52.483 C16.788,52.701 16.859,52.928 16.909,53.162 C16.912,53.174 16.917,53.185 16.92,53.197 C16.972,53.457 17,53.725 17,54 C17,56.206 15.206,58 13,58 Z M45,58 C42.794,58 41,56.206 41,54 C41,53.725 41.028,53.457 41.081,53.197 C41.084,53.185 41.089,53.174 41.092,53.162 C41.142,52.927 41.214,52.7 41.303,52.483 C41.332,52.413 41.371,52.349 41.404,52.281 C41.477,52.128 41.554,51.977 41.646,51.836 C41.696,51.758 41.755,51.687 41.81,51.613 C41.899,51.494 41.991,51.379 42.093,51.271 C42.163,51.196 42.238,51.126 42.314,51.057 C42.415,50.965 42.52,50.877 42.63,50.796 C42.717,50.732 42.806,50.67 42.898,50.612 C43.012,50.541 43.132,50.478 43.254,50.419 C43.351,50.372 43.447,50.323 43.547,50.283 C43.687,50.228 43.833,50.187 43.981,50.148 C44.071,50.124 44.158,50.093 44.25,50.076 C44.493,50.029 44.743,50 45,50 C45.257,50 45.507,50.029 45.751,50.076 C45.843,50.094 45.93,50.124 46.02,50.148 C46.167,50.187 46.314,50.228 46.454,50.283 C46.555,50.323 46.651,50.371 46.747,50.419 C46.869,50.479 46.988,50.541 47.103,50.612 C47.195,50.669 47.284,50.731 47.371,50.796 C47.481,50.878 47.586,50.965 47.687,51.057 C47.763,51.126 47.838,51.196 47.908,51.271 C48.009,51.379 48.102,51.495 48.191,51.613 C48.246,51.687 48.305,51.758 48.355,51.836 C48.447,51.977 48.523,52.128 48.597,52.281 C48.63,52.349 48.669,52.413 48.698,52.483 C48.788,52.701 48.859,52.928 48.909,53.162 C48.912,53.174 48.917,53.185 48.92,53.197 C48.972,53.457 49,53.725 49,54 C49,56.206 47.206,58 45,58 Z M58,52 L50.658,52 C50.646,51.966 50.627,51.935 50.614,51.901 C50.521,51.653 50.417,51.411 50.293,51.179 C50.287,51.167 50.282,51.155 50.276,51.143 C50.146,50.903 49.995,50.678 49.834,50.459 C49.799,50.412 49.765,50.365 49.729,50.319 C49.562,50.105 49.384,49.901 49.19,49.712 C49.172,49.695 49.153,49.679 49.135,49.662 C48.942,49.477 48.735,49.307 48.519,49.149 C48.496,49.132 48.474,49.114 48.451,49.098 C48.221,48.935 47.978,48.789 47.725,48.66 C47.698,48.646 47.67,48.634 47.643,48.62 C47.392,48.496 47.134,48.387 46.865,48.299 C46.857,48.296 46.849,48.293 46.84,48.29 C46.574,48.204 46.3,48.14 46.02,48.092 C45.965,48.082 45.909,48.074 45.853,48.066 C45.574,48.028 45.29,48 45,48 C44.71,48 44.426,48.028 44.147,48.068 C44.091,48.076 44.036,48.084 43.98,48.094 C43.7,48.142 43.425,48.206 43.16,48.292 C43.152,48.295 43.144,48.298 43.135,48.301 C42.866,48.389 42.608,48.498 42.357,48.622 C42.33,48.635 42.302,48.648 42.275,48.662 C42.022,48.792 41.78,48.938 41.549,49.1 C41.526,49.116 41.504,49.134 41.481,49.151 C41.264,49.309 41.058,49.479 40.865,49.664 C40.847,49.681 40.828,49.696 40.81,49.714 C40.616,49.903 40.438,50.107 40.271,50.321 C40.235,50.367 40.201,50.414 40.166,50.461 C40.006,50.68 39.854,50.905 39.724,51.145 C39.718,51.157 39.713,51.169 39.707,51.181 C39.583,51.412 39.479,51.655 39.386,51.903 C39.373,51.937 39.354,51.968 39.342,52.002 L18.658,52.002 C18.646,51.968 18.627,51.937 18.614,51.903 C18.521,51.655 18.417,51.413 18.293,51.181 C18.287,51.169 18.282,51.157 18.276,51.145 C18.146,50.905 17.995,50.68 17.834,50.461 C17.799,50.414 17.765,50.367 17.729,50.321 C17.562,50.107 17.384,49.903 17.19,49.714 C17.172,49.697 17.153,49.681 17.135,49.664 C16.942,49.479 16.735,49.309 16.519,49.151 C16.496,49.134 16.474,49.116 16.451,49.1 C16.221,48.937 15.978,48.791 15.725,48.662 C15.698,48.648 15.67,48.636 15.643,48.622 C15.392,48.498 15.134,48.389 14.865,48.301 C14.857,48.298 14.849,48.295 14.84,48.292 C14.574,48.206 14.3,48.142 14.02,48.094 C13.965,48.084 13.909,48.076 13.853,48.068 C13.574,48.028 13.29,48 13,48 C12.71,48 12.426,48.028 12.147,48.068 C12.091,48.076 12.036,48.084 11.98,48.094 C11.7,48.142 11.425,48.206 11.16,48.292 C11.152,48.295 11.144,48.298 11.135,48.301 C10.866,48.389 10.608,48.498 10.357,48.622 C10.33,48.635 10.302,48.648 10.275,48.662 C10.022,48.792 9.78,48.938 9.549,49.1 C9.526,49.116 9.504,49.134 9.481,49.151 C9.264,49.309 9.058,49.479 8.865,49.664 C8.847,49.681 8.828,49.696 8.81,49.714 C8.616,49.903 8.438,50.107 8.271,50.321 C8.235,50.367 8.201,50.414 8.166,50.461 C8.006,50.68 7.854,50.905 7.724,51.145 C7.718,51.157 7.713,51.169 7.707,51.181 C7.583,51.412 7.479,51.655 7.386,51.903 C7.374,51.935 7.354,51.966 7.342,52 L2,52 L2,38.312 L10.524,26 L20,26 L20,38.142 L20,43 C20,43.553 20.448,44 21,44 L25.858,44 L54.141,44 L58,44 L58,52 Z M58,42 L55,42 C55,40.346 56.346,39 58,39 L58,42 Z M58,37 C55.243,37 53,39.243 53,42 L27,42 C27,39.243 24.757,37 22,37 L22,25 C24.757,25 27,22.757 27,20 L31.587,20 L46.413,20 L53,20 C53,22.757 55.243,25 58,25 L58,37 Z M33.256,18 C34.545,16.14 36.667,15 39,15 C41.333,15 43.455,16.14 44.744,18 L33.256,18 Z M58,23 C56.346,23 55,21.654 55,20 L58,20 L58,23 Z M58,18 L54.142,18 L47.032,18 C45.516,14.95 42.448,13 39.001,13 C35.554,13 32.486,14.95 30.97,18 L25.86,18 L22,18 L22,16 C24.757,16 27,13.757 27,11 L31.174,11 L46,11 L53,11 C53,13.757 55.243,16 58,16 L58,18 Z M32.843,9 C34.132,7.14 36.254,6 38.587,6 C40.92,6 43.042,7.14 44.331,9 L32.843,9 Z M58,14 C56.346,14 55,12.654 55,11 L58,11 L58,14 Z M58,9 L54.142,9 L46.618,9 C45.102,5.95 42.034,4 38.587,4 C35.14,4 32.072,5.95 30.556,9 L25.859,9 L22,9 L22,7 C24.757,7 27,4.757 27,2 L53,2 C53,4.757 55.243,7 58,7 L58,9 Z M58,5 C56.346,5 55,3.654 55,2 L58,2 L58,5 Z"></path>
                        <path d="M17,28 L12,28 C11.658,28 11.34,28.175 11.156,28.463 L4.156,39.463 C4.054,39.624 4,39.81 4,40 L4,43 C4,43.553 4.448,44 5,44 L17,44 C17.552,44 18,43.553 18,43 L18,29 C18,28.447 17.552,28 17,28 Z M16,42 L6,42 L6,40.291 L12.549,30 L16,30 L16,42 Z"></path>
                    </g>
                </g>
            </g>
        </g>
    </g>
</svg>