<?xml version="1.0" encoding="UTF-8"?>
<svg width="30px" height="30px" viewBox="0 0 30 30" version="1.1" xmlns="http://www.w3.org/2000/svg" xmlns:xlink="http://www.w3.org/1999/xlink">
    <!-- Generator: Sketch 46.2 (44496) - http://www.bohemiancoding.com/sketch -->
    <title>Icon user white</title>
    <desc>Created with Sketch.</desc>
    <defs></defs>
    <g id="Desktop" stroke="none" stroke-width="1" fill="none" fill-rule="evenodd">
        <g id="Login" transform="translate(-235.000000, -117.000000)" fill-rule="nonzero" fill="#FFFFFF">
            <g id="Icon-user-white" transform="translate(235.000000, 117.000000)">
                <path d="M27.8789063,21.5653125 C26.9934375,20.6800781 25.5117188,19.9073437 23.1759375,18.7389844 C21.9984375,18.1502344 20.0385938,17.1707812 19.5635156,16.7221875 C21.553125,14.2767187 22.7078906,11.5146094 22.7078906,9.09679687 C22.7078906,7.45617187 22.7078906,5.41453125 21.7896094,3.59367188 C20.9617969,1.95375 19.111875,0 15.0004688,0 C10.888125,0 9.03820313,1.95375 8.21132812,3.5934375 C7.291875,5.41453125 7.291875,7.4559375 7.291875,9.0965625 C7.291875,11.5153125 8.44570313,14.2767187 10.4364844,16.7219531 C9.96023438,17.1714844 8.000625,18.1511719 6.823125,18.73875 C4.48804687,19.906875 3.00632812,20.6796094 2.12015625,21.5650781 C0.158671875,23.5279687 0.0103125,26.8211719 0.000234375,27.4619531 C-0.00984375,28.1303906 0.2484375,28.7765625 0.7190625,29.2544531 C1.1878125,29.7304687 1.83070312,29.9997656 2.49914062,29.9997656 L27.4996875,29.9997656 C28.17,29.9997656 28.81125,29.7307031 29.2809375,29.2544531 C29.750625,28.7765625 30.0098438,28.1301562 29.9997656,27.4610156 C29.9896875,26.8214062 29.8401563,23.5282031 27.8789063,21.5653125 Z M27.9457031,27.9382031 C27.8266406,28.0582031 27.6682031,28.125 27.4996875,28.125 L2.49914062,28.125 C2.3334375,28.125 2.17148437,28.0572656 2.055,27.9382031 C1.93875,27.8200781 1.87289063,27.6571875 1.87453125,27.4905469 C1.87992188,27.1764844 1.96617188,24.3721875 3.44601562,22.891875 C4.12921875,22.2089063 5.559375,21.4682813 7.66195312,20.4161719 C9.90632812,19.2946875 11.1508594,18.62625 11.7241406,18.084375 L12.9895312,16.8878906 L11.8907812,15.5383594 C10.1601562,13.4125781 9.16664062,11.0641406 9.16664062,9.09679688 C9.16664062,7.5796875 9.16664062,5.86125 9.88453125,4.43859375 C10.7442187,2.7375 12.4638281,1.875 15.0004687,1.875 C17.535,1.875 19.2564844,2.7375 20.1154687,4.43765625 C20.8333594,5.86125 20.8333594,7.5796875 20.8333594,9.09679687 C20.8333594,11.0634375 19.8407812,13.4116406 18.1080469,15.5383594 L17.0092969,16.8888281 L18.2749219,18.0846094 C18.8479687,18.6257812 20.0915625,19.2939844 22.336875,20.4164062 C24.4394531,21.4673437 25.8696094,22.2082031 26.5528125,22.8921094 C27.7570313,24.0960937 28.1076563,26.3491406 28.1240625,27.4907812 C28.1271094,27.6571875 28.0619531,27.8200781 27.9457031,27.9382031 Z" id="Shape"></path>
            </g>
        </g>
    </g>
</svg>