<?xml version="1.0" encoding="UTF-8"?>
<svg width="16px" height="16px" viewBox="0 0 16 16" version="1.1" xmlns="http://www.w3.org/2000/svg" xmlns:xlink="http://www.w3.org/1999/xlink">
    <!-- Generator: Sketch 46.2 (44496) - http://www.bohemiancoding.com/sketch -->
    <title>Icon user</title>
    <desc>Created with Sketch.</desc>
    <defs></defs>
    <g id="Symbols" stroke="none" stroke-width="1" fill="none" fill-rule="evenodd">
        <g id="Form" transform="translate(-580.000000, -33.000000)" fill-rule="nonzero" fill="#525458">
            <g id="Group-5">
                <g id="Group-2" transform="translate(580.000000, 30.000000)">
                    <g id="Icon-user" transform="translate(0.000000, 3.000000)">
                        <path d="M14.86875,11.5015 C14.3965,11.029375 13.60625,10.61725 12.3605,9.994125 C11.7325,9.680125 10.68725,9.15775 10.433875,8.9185 C11.495,7.61425 12.110875,6.141125 12.110875,4.851625 C12.110875,3.976625 12.110875,2.88775 11.621125,1.916625 C11.179625,1.042 10.193,0 8.00025,0 C5.807,0 4.820375,1.042 4.379375,1.9165 C3.889,2.88775 3.889,3.9765 3.889,4.8515 C3.889,6.1415 4.504375,7.61425 5.566125,8.918375 C5.312125,9.158125 4.267,9.680625 3.639,9.994 C2.393625,10.617 1.603375,11.029125 1.13075,11.501375 C0.084625,12.54825 0.0055,14.304625 0.000125,14.646375 C-0.00525,15.002875 0.1325,15.3475 0.3835,15.602375 C0.6335,15.85625 0.976375,15.999875 1.332875,15.999875 L14.6665,15.999875 C15.024,15.999875 15.366,15.856375 15.6165,15.602375 C15.867,15.3475 16.00525,15.00275 15.999875,14.645875 C15.9945,14.30475 15.91475,12.548375 14.86875,11.5015 Z M14.904375,14.900375 C14.840875,14.964375 14.756375,15 14.6665,15 L1.332875,15 C1.2445,15 1.158125,14.963875 1.096,14.900375 C1.034,14.837375 0.998875,14.7505 0.99975,14.661625 C1.002625,14.494125 1.048625,12.9985 1.837875,12.209 C2.20225,11.84475 2.965,11.44975 4.086375,10.888625 C5.283375,10.2905 5.947125,9.934 6.252875,9.645 L6.92775,9.006875 L6.34175,8.287125 C5.41875,7.153375 4.888875,5.900875 4.888875,4.851625 C4.888875,4.0425 4.888875,3.126 5.27175,2.36725 C5.73025,1.46 6.647375,1 8.00025,1 C9.352,1 10.270125,1.46 10.72825,2.36675 C11.111125,3.126 11.111125,4.0425 11.111125,4.851625 C11.111125,5.9005 10.58175,7.152875 9.657625,8.287125 L9.071625,9.007375 L9.746625,9.645125 C10.05225,9.93375 10.7155,10.290125 11.913,10.88875 C13.034375,11.44925 13.797125,11.844375 14.1615,12.209125 C14.80375,12.85125 14.99075,14.052875 14.9995,14.66175 C15.001125,14.7505 14.966375,14.837375 14.904375,14.900375 Z" id="Shape"></path>
                    </g>
                </g>
            </g>
        </g>
    </g>
</svg>